Encoded from the DVD5
Video ID : 1 
Format : AVC 
Format/Info : Advanced Video Codec 
Format profile : High@L3.0 
Format settings, CABAC : Yes 
Format settings, ReFrames : 5 frames 
Muxing mode : Container profile=Unknown@3.0 
Codec ID : V_MPEG4/ISO/AVC 
Duration : 1h 41mn 
Bit rate : 901 Kbps 
Nominal bit rate : 927 Kbps 
Width : 720 pixels 
Height : 312 pixels 
Display aspect ratio : 2.35 
Frame rate : 29.970 fps 
Resolution : 24 bits 
Colorimetry : 4:2:0 
Scan type : Progressive 
Bits/(Pixel*Frame) : 0.134 
Stream size : 654 MiB (65%) 
Writing library : x264 core 92 r1510 33d382a 
Encoding settings : cabac=1 / ref=5 / deblock=1:-1:-1 / analyse=0x3:0x133 / me=umh / subme=7 / psy=1 / psy_rd=1.00:0.20 / mixed_ref=1 / me_range=16 / chroma_me=1 / trellis=2 / 8x8dct=1 / cqm=0 / deadzone=21,11 / fast_pskip=0 / chroma_qp_offset=-3 / threads=12 / sliced_threads=0 / nr=0 / decimate=0 / interlaced=0 / constrained_intra=0 / bframes=3 / b_pyramid=2 / b_adapt=2 / b_bias=0 / direct=3 / wpredb=1 / wpredp=2 / keyint=250 / keyint_min=25 / scenecut=40 / intra_refresh=0 / rc_lookahead=50 / rc=2pass / mbtree=1 / bitrate=927 / ratetol=1.0 / qcomp=0.60 / qpmin=10 / qpmax=51 / qpstep=4 / cplxblur=20.0 / qblur=0.5 / ip_ratio=1.40 / aq=1:1.00 

Audio  ID : 2 
Format : AC-3 
Format/Info : Audio Coding 3 
Codec ID : A_AC3 
Duration : 1h 41mn 
Bit rate mode : Constant 
Bit rate : 448 Kbps 
Channel(s) : 6 channels 
Channel positions : Front: L C R, Surround: L R, LFE 
Sampling rate : 48.0 KHz 
Stream size : 325 MiB (33%) 

This is the 2007 movie directed by Jay Chou and Starring Jay Chou.